EAM DAYN PROUDLY PRESENTS

WITH INSPIRATION OF

-=![POSTERBHAI]!=-

The Mechanic (2011) (In Hindi) 1cd Rip Mpg * FIRST ON NET*

Media Info:

Code:
Format : MPEG-PS File size : 700 MiB Duration : 1h 24mn Overall bit rate : 1 160 Kbps Video ID : 224 (0xE0) Format : MPEG Video Format version : Version 1 Format settings, BVOP : No Format settings, Matrix : Default Duration : 1h 24mn Bit rate mode : Variable Bit rate : 1 009 Kbps Width : 384 pixels Height : 288 pixels Display aspect ratio : 4:3 Frame rate : 25.000 fps Color space : YUV Bit depth : 8 bits Scan type : Progressive Compression mode : Lossy Bits/(Pixel*Frame) : 0.365 Stream size : 609 MiB (87%) Audio ID : 192 (0xC0) Format : MPEG Audio Format version : Version 1 Format profile : Layer 3 Mode : Joint stereo Mode extension : MS Stereo Duration : 1h 24mn Bit rate mode : Constant Bit rate : 128 Kbps Channel(s) : 2 channels Sampling rate : 44.1 KHz Compression mode : Lossy Stream size : 77.2 MiB (11%)

Screens:


WILL ADD IN SOME TIME FOR SURE...!!!

100% GENUINE MOVIE